<svg width="965" height="1022" viewBox="0 0 965 1022" fill="none" xmlns="http://www.w3.org/2000/svg">
<path d="M31.0912 103H91.2838M31.0912 103L1 52L31.0912 1H91.2838L121.375 52M31.0912 103L1 154L31.0912 205M91.2838 103L121.375 52M91.2838 103L121.375 154M121.375 52L151.466 1H211.659L241.75 52M121.375 52L151.466 103M31.0912 511H91.2838M31.0912 511L1 460L31.0912 409M31.0912 511L1 562L31.0912 613M91.2838 511L121.375 460M91.2838 511L121.375 562M121.375 460L91.2838 409M121.375 460L151.466 409M121.375 460L151.466 511M91.2838 409H31.0912M91.2838 409L121.375 358M31.0912 409L1 358L31.0912 307M31.0912 307H91.2838M31.0912 307L1 256L31.0912 205M91.2838 307L121.375 256M91.2838 307L121.375 358M121.375 256L91.2838 205M121.375 256L151.466 205M121.375 256L151.466 307M91.2838 205H31.0912M91.2838 205L121.375 154M31.0912 715H91.2838M31.0912 715L1 664L31.0912 613M31.0912 715L1 766L31.0912 817M91.2838 715L121.375 664M91.2838 715L121.375 766M121.375 664L91.2838 613M121.375 664L151.466 613M121.375 664L151.466 715M91.2838 613H31.0912M91.2838 613L121.375 562M31.0912 919H91.2838M31.0912 919L1 868L31.0912 817M31.0912 919L1 970L31.0912 1021H91.2838L121.375 970M91.2838 919L121.375 868M91.2838 919L121.375 970M121.375 868L91.2838 817M121.375 868L151.466 817M121.375 868L151.466 919M91.2838 817H31.0912M91.2838 817L121.375 766M121.375 154L151.466 103M121.375 154L151.466 205M121.375 562L151.466 511M121.375 562L151.466 613M121.375 358L151.466 307M121.375 358L151.466 409M121.375 766L151.466 715M121.375 766L151.466 817M121.375 970L151.466 919M121.375 970L151.466 1021H211.659L241.75 970M512.591 103H572.784M512.591 103L482.5 52M512.591 103L482.5 154M572.784 103L602.875 52M572.784 103L602.875 154M602.875 52L572.784 1H512.591L482.5 52M602.875 52L632.966 1H693.159L723.25 52M602.875 52L632.966 103M482.5 52L452.409 103M482.5 52L452.409 1H392.216L362.125 52M512.591 511H572.784M512.591 511L482.5 460M512.591 511L482.5 562M572.784 511L602.875 460M572.784 511L602.875 562M602.875 460L572.784 409M602.875 460L632.966 409M602.875 460L632.966 511M572.784 409H512.591M572.784 409L602.875 358M512.591 409L482.5 460M512.591 409L482.5 358M482.5 460L452.409 511M482.5 460L452.409 409M512.591 307H572.784M512.591 307L482.5 256M512.591 307L482.5 358M572.784 307L602.875 256M572.784 307L602.875 358M602.875 256L572.784 205M602.875 256L632.966 205M602.875 256L632.966 307M572.784 205H512.591M572.784 205L602.875 154M512.591 205L482.5 256M512.591 205L482.5 154M482.5 256L452.409 307M482.5 256L452.409 205M512.591 715H572.784M512.591 715L482.5 664M512.591 715L482.5 766M572.784 715L602.875 664M572.784 715L602.875 766M602.875 664L572.784 613M602.875 664L632.966 613M602.875 664L632.966 715M572.784 613H512.591M572.784 613L602.875 562M512.591 613L482.5 664M512.591 613L482.5 562M482.5 664L452.409 715M482.5 664L452.409 613M512.591 919H572.784M512.591 919L482.5 868M512.591 919L482.5 970M572.784 919L602.875 868M572.784 919L602.875 970M602.875 868L572.784 817M602.875 868L632.966 817M602.875 868L632.966 919M572.784 817H512.591M572.784 817L602.875 766M512.591 817L482.5 868M512.591 817L482.5 766M482.5 868L452.409 919M482.5 868L452.409 817M602.875 154L632.966 103M602.875 154L632.966 205M482.5 154L452.409 205M482.5 154L452.409 103M602.875 562L632.966 511M602.875 562L632.966 613M482.5 562L452.409 613M482.5 562L452.409 511M602.875 358L632.966 307M602.875 358L632.966 409M482.5 358L452.409 409M482.5 358L452.409 307M602.875 766L632.966 715M602.875 766L632.966 817M482.5 766L452.409 817M482.5 766L452.409 715M602.875 970L572.784 1021H512.591L482.5 970M602.875 970L632.966 919M602.875 970L632.966 1021H693.159L723.25 970M482.5 970L452.409 1021H392.216L362.125 970M482.5 970L452.409 919M271.841 103H332.034M271.841 103L241.75 52M271.841 103L241.75 154M332.034 103L362.125 52M332.034 103L362.125 154M362.125 52L332.034 1H271.841L241.75 52M362.125 52L392.216 103M241.75 52L211.659 103M271.841 511H332.034M271.841 511L241.75 460M271.841 511L241.75 562M332.034 511L362.125 460M332.034 511L362.125 562M362.125 460L332.034 409M362.125 460L392.216 409M362.125 460L392.216 511M332.034 409H271.841M332.034 409L362.125 358M271.841 409L241.75 460M271.841 409L241.75 358M241.75 460L211.659 511M241.75 460L211.659 409M271.841 307H332.034M271.841 307L241.75 256M271.841 307L241.75 358M332.034 307L362.125 256M332.034 307L362.125 358M362.125 256L332.034 205M362.125 256L392.216 205M362.125 256L392.216 307M332.034 205H271.841M332.034 205L362.125 154M271.841 205L241.75 256M271.841 205L241.75 154M241.75 256L211.659 307M241.75 256L211.659 205M271.841 715H332.034M271.841 715L241.75 664M271.841 715L241.75 766M332.034 715L362.125 664M332.034 715L362.125 766M362.125 664L332.034 613M362.125 664L392.216 613M362.125 664L392.216 715M332.034 613H271.841M332.034 613L362.125 562M271.841 613L241.75 664M271.841 613L241.75 562M241.75 664L211.659 715M241.75 664L211.659 613M271.841 919H332.034M271.841 919L241.75 868M271.841 919L241.75 970M332.034 919L362.125 868M332.034 919L362.125 970M362.125 868L332.034 817M362.125 868L392.216 817M362.125 868L392.216 919M332.034 817H271.841M332.034 817L362.125 766M271.841 817L241.75 868M271.841 817L241.75 766M241.75 868L211.659 919M241.75 868L211.659 817M362.125 154L392.216 103M362.125 154L392.216 205M241.75 154L211.659 205M241.75 154L211.659 103M362.125 562L392.216 511M362.125 562L392.216 613M241.75 562L211.659 613M241.75 562L211.659 511M362.125 358L392.216 307M362.125 358L392.216 409M241.75 358L211.659 409M241.75 358L211.659 307M362.125 766L392.216 715M362.125 766L392.216 817M241.75 766L211.659 817M241.75 766L211.659 715M362.125 970L332.034 1021H271.841L241.75 970M362.125 970L392.216 919M241.75 970L211.659 919M753.341 103H813.534M753.341 103L723.25 52M753.341 103L723.25 154M813.534 103L843.625 52M813.534 103L843.625 154M843.625 52L813.534 1H753.341L723.25 52M843.625 52L873.716 1H933.909L964 52L933.909 103M843.625 52L873.716 103M723.25 52L693.159 103M753.341 511H813.534M753.341 511L723.25 460M753.341 511L723.25 562M813.534 511L843.625 460M813.534 511L843.625 562M843.625 460L813.534 409M843.625 460L873.716 409M843.625 460L873.716 511M813.534 409H753.341M813.534 409L843.625 358M753.341 409L723.25 460M753.341 409L723.25 358M723.25 460L693.159 511M723.25 460L693.159 409M753.341 307H813.534M753.341 307L723.25 256M753.341 307L723.25 358M813.534 307L843.625 256M813.534 307L843.625 358M843.625 256L813.534 205M843.625 256L873.716 205M843.625 256L873.716 307M813.534 205H753.341M813.534 205L843.625 154M753.341 205L723.25 256M753.341 205L723.25 154M723.25 256L693.159 307M723.25 256L693.159 205M753.341 715H813.534M753.341 715L723.25 664M753.341 715L723.25 766M813.534 715L843.625 664M813.534 715L843.625 766M843.625 664L813.534 613M843.625 664L873.716 613M843.625 664L873.716 715M813.534 613H753.341M813.534 613L843.625 562M753.341 613L723.25 664M753.341 613L723.25 562M723.25 664L693.159 715M723.25 664L693.159 613M753.341 919H813.534M753.341 919L723.25 868M753.341 919L723.25 970M813.534 919L843.625 868M813.534 919L843.625 970M843.625 868L813.534 817M843.625 868L873.716 817M843.625 868L873.716 919M813.534 817H753.341M813.534 817L843.625 766M753.341 817L723.25 868M753.341 817L723.25 766M723.25 868L693.159 919M723.25 868L693.159 817M843.625 154L873.716 103M843.625 154L873.716 205M723.25 154L693.159 205M723.25 154L693.159 103M843.625 562L873.716 511M843.625 562L873.716 613M723.25 562L693.159 613M723.25 562L693.159 511M843.625 358L873.716 307M843.625 358L873.716 409M723.25 358L693.159 409M723.25 358L693.159 307M843.625 766L873.716 715M843.625 766L873.716 817M723.25 766L693.159 817M723.25 766L693.159 715M843.625 970L813.534 1021H753.341L723.25 970M843.625 970L873.716 919M843.625 970L873.716 1021H933.909L964 970L933.909 919M723.25 970L693.159 919M151.466 103H211.659M151.466 511H211.659M211.659 409H151.466M151.466 307H211.659M211.659 205H151.466M151.466 715H211.659M211.659 613H151.466M151.466 919H211.659M211.659 817H151.466M632.966 103H693.159M632.966 511H693.159M693.159 409H632.966M632.966 307H693.159M693.159 205H632.966M632.966 715H693.159M693.159 613H632.966M632.966 919H693.159M693.159 817H632.966M392.216 103H452.409M392.216 511H452.409M452.409 409H392.216M392.216 307H452.409M452.409 205H392.216M392.216 715H452.409M452.409 613H392.216M392.216 919H452.409M452.409 817H392.216M873.716 103H933.909M933.909 103L964 154L933.909 205M873.716 511H933.909M933.909 511L964 460L933.909 409M933.909 511L964 562L933.909 613M933.909 409H873.716M933.909 409L964 358L933.909 307M873.716 307H933.909M933.909 307L964 256L933.909 205M933.909 205H873.716M873.716 715H933.909M933.909 715L964 664L933.909 613M933.909 715L964 766L933.909 817M933.909 613H873.716M873.716 919H933.909M933.909 919L964 868L933.909 817M933.909 817H873.716" stroke="#E0E7FF" stroke-miterlimit="10"/>
</svg>
