<svg width="985" height="301" viewBox="0 0 985 301" fill="none" xmlns="http://www.w3.org/2000/svg">
<path d="M14 122.13C17.8063 121.235 28.7775 124.548 42.2115 144.968C55.6456 165.388 76.0206 173.18 84.5288 174.523" stroke="#C7D2FE" stroke-width="2"/>
<path d="M281 209C286.231 208.385 302.231 200.149 324.385 172.122C346.538 144.095 368.692 137.703 377 138.01" stroke="#C7D2FE" stroke-width="2"/>
<path d="M543 248.272C545.196 247.958 551.913 243.75 561.213 229.432C570.514 215.114 579.815 211.848 583.302 212.005" stroke="#C7D2FE" stroke-width="2"/>
<path d="M833 52.1303C836.806 51.2347 847.777 54.5484 861.212 74.9682C874.646 95.388 895.021 103.18 903.529 104.523" stroke="#C7D2FE" stroke-width="2"/>
<path d="M560 21.0893C562.59 20.4754 570.057 22.7467 579.2 36.7427C588.343 50.7387 602.21 56.0792 608 57" stroke="#C7D2FE" stroke-width="2"/>
<circle cx="474.222" cy="85.11" r="1.34341" fill="#A5B4FC"/>
<circle cx="376.154" cy="34.0604" r="1.34341" fill="#A5B4FC"/>
<circle cx="230.343" cy="187.343" r="1.34341" fill="#A5B4FC"/>
<circle cx="585.343" cy="157.343" r="1.34341" fill="#A5B4FC"/>
<circle cx="460.343" cy="258.343" r="1.34341" fill="#A5B4FC"/>
<circle cx="675.343" cy="26.3434" r="1.34341" fill="#A5B4FC"/>
<circle cx="689.343" cy="195.343" r="1.34341" fill="#A5B4FC"/>
<circle cx="866.343" cy="173.343" r="1.34341" fill="#A5B4FC"/>
<circle cx="939.343" cy="37.3434" r="1.34341" fill="#A5B4FC"/>
<circle cx="838.343" cy="1.34341" r="1.34341" fill="#A5B4FC"/>
<circle cx="279.429" cy="27.3434" r="1.34341" fill="#A5B4FC"/>
<circle cx="114.19" cy="120.038" r="1.34341" fill="#A5B4FC"/>
<circle cx="77.9176" cy="78.393" r="1.34341" fill="#A5B4FC"/>
<path d="M0 239.602C0.223901 232.885 4.03022 219.45 17.4643 219.45C34.2569 219.45 40.3022 255.722 57.0948 258.409C73.8874 261.096 100.755 251.02 128.295 275.874C149.322 294.849 174.876 299.834 186.507 300.055H188.077C187.587 300.065 187.063 300.065 186.507 300.055H12C5.37257 300.055 0 294.682 0 288.055V239.602Z" fill="#E0E7FF"/>
<path d="M968.284 146.906C975.587 146.906 980.822 153.044 983.331 157.5C984.116 158.894 984.405 160.493 984.405 162.092V288.055C984.405 294.682 979.033 300.055 972.405 300.055H799.297C798.415 300.147 797.643 300.139 797 300.055H799.297C805.478 299.408 817.082 293.811 827.898 274.53C843.348 246.99 878.276 238.258 894.397 232.885C910.518 227.511 917.235 204.673 918.578 185.865C919.922 167.058 936.714 159.669 944.775 156.31C952.835 152.952 957.537 146.906 968.284 146.906Z" fill="#E0E7FF"/>
</svg>
