<svg width="364" height="205" viewBox="0 0 364 205" fill="none" xmlns="http://www.w3.org/2000/svg">
<path d="M15 49.097C17.8333 48.4303 26 50.897 36 66.097C46 81.297 61.1667 87.0969 67.5 88.0969" stroke="#C7D2FE" stroke-width="2"/>
<path d="M115 48.5056C117.833 48.1723 126.5 43.7056 138.5 28.5056C150.5 13.3056 162.5 9.83897 167 10.0056" stroke="#C7D2FE" stroke-width="2"/>
<path d="M214 106C215.635 105.766 220.635 102.634 227.558 91.9761C234.481 81.3179 241.404 78.8871 244 79.004" stroke="#C7D2FE" stroke-width="2"/>
<path d="M309 28.5001C311.833 27.8334 320 30.3001 330 45.5001C340 60.7001 355.167 66.5 361.5 67.5" stroke="#C7D2FE" stroke-width="2"/>
<circle cx="353" cy="44" r="1" fill="#A5B4FC"/>
<circle cx="280" cy="6" r="1" fill="#A5B4FC"/>
<circle cx="208" cy="1" r="1" fill="#A5B4FC"/>
<circle cx="85" cy="70" r="1" fill="#A5B4FC"/>
<circle cx="58" cy="39" r="1" fill="#A5B4FC"/>
<path d="M0 159C0.166667 154 3 144 13 144C25.5 144 30 171 42.5 173C55 175 75 167.5 95.5 186C111.152 200.125 130.174 203.836 138.831 204H140C139.635 204.008 139.245 204.008 138.831 204H12C5.37258 204 0 198.627 0 192V159Z" fill="#E0E7FF"/>
<path d="M352 90C357.149 90 360.917 94.0993 362.888 97.3509C363.717 98.7187 364 100.324 364 101.923V192C364 198.627 358.627 204 352 204H226.21C225.553 204.069 224.979 204.062 224.5 204H226.21C230.811 203.518 239.449 199.352 247.5 185C259 164.5 285 158 297 154C309 150 314 133 315 119C316 105 328.5 99.5 334.5 97C340.5 94.5 344 90 352 90Z" fill="#E0E7FF"/>
</svg>
