<svg width="24" height="24" viewBox="0 0 24 24" fill="none" xmlns="http://www.w3.org/2000/svg">
<path d="M21.5807 11.2868L22.4262 10.7528L21.5807 11.2868ZM21.8231 11.7766L20.8484 12L21.8231 11.7766ZM21.5807 12.7132L20.7352 12.1792L21.5807 12.7132ZM21.8231 12.2234L20.8484 12L21.8231 12.2234ZM2.42012 11.2868L3.26562 11.8208L2.42012 11.2868ZM2.17772 11.7766L3.15245 12L2.17772 11.7766ZM2.42012 12.7132L1.57462 13.2472L2.42012 12.7132ZM2.17772 12.2234L3.15245 12L2.17772 12.2234ZM3.26562 11.8208C3.79828 10.9774 4.85239 9.50007 6.35868 8.24291C7.86262 6.9877 9.75707 6 12.0004 6V4C9.13873 4 6.80575 5.26472 5.07715 6.70743C3.3509 8.14818 2.16737 9.81429 1.57462 10.7528L3.26562 11.8208ZM12.0004 6C14.2437 6 16.1382 6.9877 17.6421 8.24291C19.1484 9.50007 20.2025 10.9774 20.7352 11.8208L22.4262 10.7528C21.8334 9.81429 20.6499 8.14818 18.9237 6.70743C17.1951 5.26472 14.8621 4 12.0004 4V6ZM20.7352 12.1792C20.2025 13.0226 19.1484 14.4999 17.6421 15.7571C16.1382 17.0123 14.2437 18 12.0004 18V20C14.8621 20 17.1951 18.7353 18.9237 17.2926C20.6499 15.8518 21.8334 14.1857 22.4262 13.2472L20.7352 12.1792ZM12.0004 18C9.75707 18 7.86262 17.0123 6.35868 15.7571C4.85239 14.4999 3.79828 13.0226 3.26562 12.1792L1.57462 13.2472C2.16737 14.1857 3.3509 15.8518 5.07715 17.2926C6.80575 18.7353 9.13873 20 12.0004 20V18ZM20.7352 11.8208C20.7705 11.8768 20.7952 11.916 20.8159 11.95C20.836 11.9831 20.846 12.0012 20.8513 12.0113C20.8557 12.0198 20.8548 12.019 20.8524 12.0124C20.8512 12.0094 20.8502 12.0063 20.8494 12.0035C20.8485 12.0008 20.8482 11.9995 20.8484 12L22.7978 11.5532C22.7152 11.1928 22.5462 10.9429 22.4262 10.7528L20.7352 11.8208ZM22.4262 13.2472C22.5462 13.0571 22.7152 12.8072 22.7978 12.4468L20.8484 12C20.8482 12.0005 20.8485 11.9992 20.8494 11.9964C20.8502 11.9937 20.8512 11.9906 20.8524 11.9876C20.8548 11.981 20.8557 11.9802 20.8513 11.9887C20.846 11.9988 20.836 12.0169 20.8159 12.05C20.7952 12.084 20.7705 12.1232 20.7352 12.1792L22.4262 13.2472ZM20.8484 12C20.8457 11.9882 20.8444 11.9805 20.8439 11.9774C20.8434 11.9742 20.8434 11.9734 20.8436 11.9753C20.8438 11.9771 20.844 11.9804 20.8442 11.985C20.8444 11.9895 20.8446 11.9946 20.8446 12C20.8446 12.0054 20.8444 12.0105 20.8442 12.015C20.844 12.0196 20.8438 12.0229 20.8436 12.0247C20.8434 12.0266 20.8434 12.0258 20.8439 12.0226C20.8444 12.0195 20.8457 12.0118 20.8484 12L22.7978 12.4468C22.8601 12.1749 22.8601 11.8251 22.7978 11.5532L20.8484 12ZM1.57462 10.7528C1.45461 10.9429 1.28559 11.1928 1.203 11.5532L3.15245 12C3.15257 11.9995 3.15227 12.0008 3.15145 12.0035C3.15062 12.0063 3.14959 12.0094 3.14846 12.0124C3.14597 12.019 3.14509 12.0198 3.14952 12.0113C3.15477 12.0012 3.1648 11.9831 3.1849 11.95C3.20556 11.916 3.23028 11.8768 3.26562 11.8208L1.57462 10.7528ZM3.26562 12.1792C3.23028 12.1232 3.20556 12.084 3.1849 12.05C3.1648 12.0169 3.15477 11.9988 3.14952 11.9887C3.14509 11.9802 3.14597 11.981 3.14846 11.9876C3.14959 11.9906 3.15062 11.9937 3.15145 11.9965C3.15227 11.9992 3.15257 12.0005 3.15245 12L1.203 12.4468C1.28559 12.8072 1.45461 13.0571 1.57462 13.2472L3.26562 12.1792ZM1.203 11.5532C1.14067 11.8251 1.14067 12.1749 1.203 12.4468L3.15245 12C3.15514 12.0118 3.15641 12.0195 3.15688 12.0226C3.15738 12.0258 3.15739 12.0266 3.15721 12.0247C3.15704 12.0229 3.15678 12.0196 3.15658 12.015C3.15637 12.0105 3.15625 12.0054 3.15625 12C3.15625 11.9946 3.15637 11.9895 3.15658 11.985C3.15678 11.9804 3.15704 11.9771 3.15721 11.9753C3.15739 11.9734 3.15738 11.9742 3.15688 11.9774C3.15641 11.9805 3.15514 11.9882 3.15245 12L1.203 11.5532ZM14.0004 12C14.0004 13.1046 13.105 14 12.0004 14V16C14.2095 16 16.0004 14.2091 16.0004 12H14.0004ZM12.0004 14C10.8958 14 10.0004 13.1046 10.0004 12H8.0004C8.0004 14.2091 9.79126 16 12.0004 16V14ZM10.0004 12C10.0004 10.8954 10.8958 10 12.0004 10V8C9.79126 8 8.0004 9.79086 8.0004 12H10.0004ZM12.0004 10C13.105 10 14.0004 10.8954 14.0004 12H16.0004C16.0004 9.79086 14.2095 8 12.0004 8V10Z" fill="#6366F1"/>
</svg>
