<svg width="57" height="57" viewBox="0 0 57 57" fill="none" xmlns="http://www.w3.org/2000/svg">
<path d="M23.5125 45.6L24.3125 45V45L23.5125 45.6ZM22.0436 43.8532L22.6843 43.0854L22.0436 43.8532ZM20.0913 42.8771L20.3211 41.9038L20.0913 42.8771ZM7.66736 38.3516L6.74348 38.7343L7.66736 38.3516ZM11.5234 42.2076L11.1407 43.1315L11.5234 42.2076ZM36.9087 42.8771L36.6789 41.9038L36.9087 42.8771ZM33.4875 45.6L32.6875 45L33.4875 45.6ZM34.9564 43.8532L34.3157 43.0854L34.9564 43.8532ZM28.9304 51.3776L29.2929 52.3096L28.9304 51.3776ZM26.98 50.2233L26.18 50.8233L26.98 50.2233ZM28.0696 51.3776L27.7071 52.3096L28.0696 51.3776ZM49.3326 38.3516L50.2565 38.7343L49.3326 38.3516ZM45.4766 42.2076L45.8593 43.1315L45.4766 42.2076ZM45.9847 7.90158L46.4387 7.01057L45.9847 7.90158ZM49.0984 11.0153L49.9894 10.5613L49.0984 11.0153ZM11.0153 7.90158L10.5613 7.01057L11.0153 7.90158ZM7.90158 11.0153L7.01057 10.5613L7.90158 11.0153ZM27.5 24.9375C27.5 25.4898 27.9477 25.9375 28.5 25.9375C29.0523 25.9375 29.5 25.4898 29.5 24.9375H27.5ZM29.5 16.625C29.5 16.0727 29.0523 15.625 28.5 15.625C27.9477 15.625 27.5 16.0727 27.5 16.625H29.5ZM28.5 32.25C27.9477 32.25 27.5 32.6977 27.5 33.25C27.5 33.8023 27.9477 34.25 28.5 34.25V32.25ZM28.5238 34.25C29.076 34.25 29.5238 33.8023 29.5238 33.25C29.5238 32.6977 29.076 32.25 28.5238 32.25V34.25ZM18.525 8.125H38.475V6.125H18.525V8.125ZM48.875 18.525V32.0625H50.875V18.525H48.875ZM32.6875 45L29.22 49.6233L30.82 50.8233L34.2875 46.2L32.6875 45ZM8.125 32.0625V18.525H6.125V32.0625H8.125ZM27.78 49.6233L24.3125 45L22.7125 46.2L26.18 50.8233L27.78 49.6233ZM24.3125 45C23.6451 44.1101 23.2193 43.5319 22.6843 43.0854L21.4028 44.6209C21.717 44.8832 21.9875 45.2333 22.7125 46.2L24.3125 45ZM17.8125 43.75C19.0209 43.75 19.4633 43.7563 19.8616 43.8503L20.3211 41.9038C19.6429 41.7437 18.9249 41.75 17.8125 41.75V43.75ZM22.6843 43.0854C21.999 42.5135 21.1899 42.1089 20.3211 41.9038L19.8616 43.8503C20.4282 43.9841 20.9558 44.2479 21.4028 44.6209L22.6843 43.0854ZM6.125 32.0625C6.125 33.7087 6.12446 34.9935 6.19511 36.0291C6.26638 37.0736 6.41342 37.9375 6.74348 38.7343L8.59124 37.9689C8.37894 37.4564 8.2548 36.8356 8.19048 35.8929C8.12554 34.9412 8.125 33.7361 8.125 32.0625H6.125ZM17.8125 41.75C16.1389 41.75 14.9338 41.7495 13.9821 41.6845C13.0394 41.6202 12.4186 41.4961 11.9061 41.2838L11.1407 43.1315C11.9375 43.4616 12.8014 43.6086 13.8459 43.6799C14.8815 43.7505 16.1663 43.75 17.8125 43.75V41.75ZM6.74348 38.7343C7.56812 40.7252 9.14984 42.3069 11.1407 43.1315L11.9061 41.2838C10.4053 40.6621 9.21289 39.4697 8.59124 37.9689L6.74348 38.7343ZM39.1875 41.75C38.0751 41.75 37.3571 41.7437 36.6789 41.9038L37.1384 43.8503C37.5367 43.7563 37.9791 43.75 39.1875 43.75V41.75ZM34.2875 46.2C35.0125 45.2333 35.283 44.8832 35.5972 44.6209L34.3157 43.0854C33.7807 43.5319 33.3549 44.1101 32.6875 45L34.2875 46.2ZM36.6789 41.9038C35.8101 42.1089 35.001 42.5135 34.3157 43.0854L35.5972 44.6209C36.0442 44.2479 36.5718 43.9841 37.1384 43.8503L36.6789 41.9038ZM29.22 49.6233C28.951 49.982 28.7885 50.1972 28.6569 50.3434C28.5295 50.485 28.5118 50.4674 28.568 50.4456L29.2929 52.3096C29.6651 52.1648 29.9344 51.9139 30.1439 51.6809C30.3491 51.4527 30.5733 51.1522 30.82 50.8233L29.22 49.6233ZM26.18 50.8233C26.4267 51.1522 26.6509 51.4527 26.8561 51.6809C27.0656 51.9139 27.3349 52.1648 27.7071 52.3096L28.432 50.4456C28.4882 50.4674 28.4705 50.485 28.3431 50.3434C28.2115 50.1972 28.049 49.982 27.78 49.6233L26.18 50.8233ZM28.568 50.4456C28.5242 50.4626 28.4758 50.4626 28.432 50.4456L27.7071 52.3096C28.2171 52.5079 28.7829 52.5079 29.2929 52.3096L28.568 50.4456ZM48.875 32.0625C48.875 33.7361 48.8745 34.9412 48.8095 35.8929C48.7452 36.8356 48.6211 37.4564 48.4088 37.9689L50.2565 38.7343C50.5866 37.9375 50.7336 37.0736 50.8049 36.0291C50.8755 34.9935 50.875 33.7087 50.875 32.0625H48.875ZM39.1875 43.75C40.8337 43.75 42.1185 43.7505 43.1541 43.6799C44.1986 43.6086 45.0625 43.4616 45.8593 43.1315L45.0939 41.2838C44.5814 41.4961 43.9606 41.6202 43.0179 41.6845C42.0662 41.7495 40.8611 41.75 39.1875 41.75V43.75ZM48.4088 37.9689C47.7871 39.4697 46.5947 40.6621 45.0939 41.2838L45.8593 43.1315C47.8502 42.3069 49.4319 40.7252 50.2565 38.7343L48.4088 37.9689ZM38.475 8.125C40.4867 8.125 41.9353 8.12578 43.0733 8.21875C44.1995 8.31077 44.9331 8.4881 45.5307 8.79259L46.4387 7.01057C45.5121 6.53848 44.4861 6.32752 43.2361 6.22539C41.9978 6.12422 40.4537 6.125 38.475 6.125V8.125ZM50.875 18.525C50.875 16.5463 50.8758 15.0022 50.7746 13.7639C50.6725 12.5139 50.4615 11.4879 49.9894 10.5613L48.2074 11.4693C48.5119 12.0669 48.6892 12.8005 48.7812 13.9267C48.8742 15.0647 48.875 16.5133 48.875 18.525H50.875ZM45.5307 8.79259C46.6832 9.37981 47.6202 10.3168 48.2074 11.4693L49.9894 10.5613C49.2105 9.03251 47.9675 7.78954 46.4387 7.01057L45.5307 8.79259ZM18.525 6.125C16.5463 6.125 15.0022 6.12422 13.7639 6.22539C12.5139 6.32752 11.4879 6.53848 10.5613 7.01057L11.4693 8.79259C12.0669 8.4881 12.8005 8.31077 13.9267 8.21875C15.0647 8.12578 16.5133 8.125 18.525 8.125V6.125ZM8.125 18.525C8.125 16.5133 8.12578 15.0647 8.21875 13.9267C8.31077 12.8005 8.4881 12.0669 8.79259 11.4693L7.01057 10.5613C6.53848 11.4879 6.32752 12.5139 6.22539 13.7639C6.12422 15.0022 6.125 16.5463 6.125 18.525H8.125ZM10.5613 7.01057C9.03251 7.78954 7.78954 9.03251 7.01057 10.5613L8.79259 11.4693C9.37981 10.3168 10.3168 9.37981 11.4693 8.79259L10.5613 7.01057ZM29.5 24.9375V16.625H27.5V24.9375H29.5ZM28.5 34.25H28.5238V32.25H28.5V34.25Z" fill="#6366F1"/>
</svg>
