<svg width="1320" height="958" viewBox="0 0 1320 958" fill="none" xmlns="http://www.w3.org/2000/svg">
<path d="M54.3606 415.995C64.6287 413.659 94.225 422.3 130.465 475.548C166.706 528.796 221.67 549.114 244.623 552.618" stroke="#C7D2FE" stroke-width="2"/>
<path d="M234.833 135.891C245.101 134.724 276.509 119.076 319.998 65.8282C363.486 12.5802 406.975 0.435897 423.283 1.01976" stroke="#C7D2FE" stroke-width="2"/>
<path d="M775.544 615.335C781.468 614.516 799.589 603.544 824.678 566.207C849.768 528.869 874.857 520.354 884.266 520.763" stroke="#C7D2FE" stroke-width="2"/>
<path d="M1146.15 462.31C1135.79 464.245 1112.46 483.845 1101.96 546.77C1091.46 609.695 1049.92 649.992 1030.47 662.274" stroke="#C7D2FE" stroke-width="2"/>
<path d="M906.227 1.12898C914.434 0.242298 938.09 3.52303 967.056 23.7395C996.022 43.9559 1039.95 51.67 1058.3 53" stroke="#C7D2FE" stroke-width="2"/>
<ellipse cx="1279.29" cy="398.139" rx="3.62404" ry="3.50316" fill="#A5B4FC"/>
<ellipse cx="1014.73" cy="265.019" rx="3.62404" ry="3.50316" fill="#A5B4FC"/>
<ellipse cx="829.16" cy="147.503" rx="3.62404" ry="3.50316" fill="#A5B4FC"/>
<ellipse cx="599.624" cy="23.5032" rx="3.62404" ry="3.50316" fill="#A5B4FC"/>
<ellipse cx="637.776" cy="780.503" rx="3.62404" ry="3.50316" fill="#A5B4FC"/>
<ellipse cx="992.612" cy="492.503" rx="3.62404" ry="3.50316" fill="#A5B4FC"/>
<ellipse cx="231.215" cy="819.503" rx="3.62404" ry="3.50316" fill="#A5B4FC"/>
<ellipse cx="1163.3" cy="32.5032" rx="3.62404" ry="3.50316" fill="#A5B4FC"/>
<ellipse cx="138.11" cy="80.5032" rx="3.62404" ry="3.50316" fill="#A5B4FC"/>
<ellipse cx="308.043" cy="489.221" rx="3.62404" ry="3.50316" fill="#A5B4FC"/>
<ellipse cx="210.194" cy="380.623" rx="3.62404" ry="3.50316" fill="#A5B4FC"/>
<path d="M0 801.002C0.604007 783.487 10.8721 748.455 47.1125 748.455C92.413 748.455 108.721 843.04 154.022 850.047C199.322 857.053 271.803 830.779 346.096 895.588C402.819 945.069 471.755 958.069 503.13 958.645H507.366C506.043 958.671 504.629 958.672 503.13 958.645H12C5.37259 958.645 0 953.272 0 946.645V801.002Z" fill="#E0E7FF"/>
<path d="M1275.66 559.285C1297.37 559.285 1312.3 578.717 1318.09 590.303C1318.83 591.778 1319.15 593.416 1319.15 595.065V946.645C1319.15 953.272 1313.78 958.645 1307.15 958.645H819.793C817.413 958.886 815.332 958.864 813.597 958.645H819.793C836.467 956.957 867.772 942.362 896.95 892.085C938.626 820.27 1032.85 797.5 1076.34 783.487C1119.83 769.474 1137.95 709.921 1141.57 660.876C1145.2 611.832 1190.5 592.565 1212.24 583.807C1233.99 575.049 1246.67 559.285 1275.66 559.285Z" fill="#E0E7FF"/>
</svg>
