<svg width="24" height="24" viewBox="0 0 24 24" fill="none" xmlns="http://www.w3.org/2000/svg">
<path d="M3.09202 21.782L3.54601 20.891L3.09202 21.782ZM2.21799 20.908L3.10899 20.454L2.21799 20.908ZM15.782 20.908L14.891 20.454L15.782 20.908ZM14.908 21.782L14.454 20.891L14.908 21.782ZM14.908 8.21799L14.454 9.10899L14.908 8.21799ZM15.782 9.09202L14.891 9.54601L15.782 9.09202ZM3.09202 8.21799L3.54601 9.10899L3.09202 8.21799ZM2.21799 9.09202L3.10899 9.54601L2.21799 9.09202ZM6.70711 14.2929C6.31658 13.9024 5.68342 13.9024 5.29289 14.2929C4.90237 14.6834 4.90237 15.3166 5.29289 15.7071L6.70711 14.2929ZM8 17L7.29289 17.7071C7.68342 18.0976 8.31658 18.0976 8.70711 17.7071L8 17ZM13.2071 13.2071C13.5976 12.8166 13.5976 12.1834 13.2071 11.7929C12.8166 11.4024 12.1834 11.4024 11.7929 11.7929L13.2071 13.2071ZM7 8C7 8.55228 7.44772 9 8 9C8.55228 9 9 8.55228 9 8H7ZM16 15C15.4477 15 15 15.4477 15 16C15 16.5523 15.4477 17 16 17V15ZM21.782 14.908L20.891 14.454V14.454L21.782 14.908ZM20.908 15.782L20.454 14.891H20.454L20.908 15.782ZM20.908 2.21799L20.454 3.10899V3.10899L20.908 2.21799ZM21.782 3.09202L20.891 3.54601V3.54601L21.782 3.09202ZM9.09202 2.21799L8.63803 1.32698V1.32698L9.09202 2.21799ZM8.21799 3.09202L7.32698 2.63803V2.63803L8.21799 3.09202ZM5.2 9H12.8V7H5.2V9ZM15 11.2V18.8H17V11.2H15ZM12.8 21H5.2V23H12.8V21ZM3 18.8V11.2H1V18.8H3ZM5.2 21C4.62345 21 4.25117 20.9992 3.96784 20.9761C3.69617 20.9539 3.59545 20.9162 3.54601 20.891L2.63803 22.673C3.01641 22.8658 3.40963 22.9371 3.80497 22.9694C4.18864 23.0008 4.65645 23 5.2 23V21ZM1 18.8C1 19.3436 0.999222 19.8114 1.03057 20.195C1.06287 20.5904 1.13419 20.9836 1.32698 21.362L3.10899 20.454C3.0838 20.4045 3.04612 20.3038 3.02393 20.0322C3.00078 19.7488 3 19.3766 3 18.8H1ZM3.54601 20.891C3.35785 20.7951 3.20487 20.6422 3.10899 20.454L1.32698 21.362C1.6146 21.9265 2.07354 22.3854 2.63803 22.673L3.54601 20.891ZM15 18.8C15 19.3766 14.9992 19.7488 14.9761 20.0322C14.9539 20.3038 14.9162 20.4045 14.891 20.454L16.673 21.362C16.8658 20.9836 16.9371 20.5904 16.9694 20.195C17.0008 19.8114 17 19.3436 17 18.8H15ZM12.8 23C13.3436 23 13.8114 23.0008 14.195 22.9694C14.5904 22.9371 14.9836 22.8658 15.362 22.673L14.454 20.891C14.4045 20.9162 14.3038 20.9539 14.0322 20.9761C13.7488 20.9992 13.3766 21 12.8 21V23ZM14.891 20.454C14.7951 20.6422 14.6422 20.7951 14.454 20.891L15.362 22.673C15.9265 22.3854 16.3854 21.9265 16.673 21.362L14.891 20.454ZM12.8 9C13.3766 9 13.7488 9.00078 14.0322 9.02393C14.3038 9.04612 14.4045 9.0838 14.454 9.10899L15.362 7.32698C14.9836 7.13419 14.5904 7.06287 14.195 7.03057C13.8114 6.99922 13.3436 7 12.8 7V9ZM17 11.2C17 10.6564 17.0008 10.1886 16.9694 9.80497C16.9371 9.40963 16.8658 9.01641 16.673 8.63803L14.891 9.54601C14.9162 9.59545 14.9539 9.69617 14.9761 9.96784C14.9992 10.2512 15 10.6234 15 11.2H17ZM14.454 9.10899C14.6422 9.20487 14.7951 9.35785 14.891 9.54601L16.673 8.63803C16.3854 8.07354 15.9265 7.6146 15.362 7.32698L14.454 9.10899ZM5.2 7C4.65645 7 4.18864 6.99922 3.80497 7.03057C3.40963 7.06287 3.01641 7.13419 2.63803 7.32698L3.54601 9.10899C3.59545 9.0838 3.69617 9.04612 3.96784 9.02393C4.25117 9.00078 4.62345 9 5.2 9V7ZM3 11.2C3 10.6234 3.00078 10.2512 3.02393 9.96784C3.04612 9.69617 3.0838 9.59545 3.10899 9.54601L1.32698 8.63803C1.13419 9.01641 1.06287 9.40963 1.03057 9.80497C0.999222 10.1886 1 10.6564 1 11.2H3ZM2.63803 7.32698C2.07354 7.6146 1.6146 8.07354 1.32698 8.63803L3.10899 9.54601C3.20487 9.35785 3.35785 9.20487 3.54601 9.10899L2.63803 7.32698ZM5.29289 15.7071L7.29289 17.7071L8.70711 16.2929L6.70711 14.2929L5.29289 15.7071ZM8.70711 17.7071L13.2071 13.2071L11.7929 11.7929L7.29289 16.2929L8.70711 17.7071ZM11.2 3H18.8V1H11.2V3ZM21 5.2V12.8H23V5.2H21ZM9 8V5.2H7V8H9ZM18.8 15H16V17H18.8V15ZM21 12.8C21 13.3766 20.9992 13.7488 20.9761 14.0322C20.9539 14.3038 20.9162 14.4045 20.891 14.454L22.673 15.362C22.8658 14.9836 22.9371 14.5904 22.9694 14.195C23.0008 13.8114 23 13.3436 23 12.8H21ZM18.8 17C19.3436 17 19.8114 17.0008 20.195 16.9694C20.5904 16.9371 20.9836 16.8658 21.362 16.673L20.454 14.891C20.4045 14.9162 20.3038 14.9539 20.0322 14.9761C19.7488 14.9992 19.3766 15 18.8 15V17ZM20.891 14.454C20.7951 14.6422 20.6422 14.7951 20.454 14.891L21.362 16.673C21.9265 16.3854 22.3854 15.9265 22.673 15.362L20.891 14.454ZM18.8 3C19.3766 3 19.7488 3.00078 20.0322 3.02393C20.3038 3.04612 20.4045 3.0838 20.454 3.10899L21.362 1.32698C20.9836 1.13419 20.5904 1.06287 20.195 1.03057C19.8114 0.999222 19.3436 1 18.8 1V3ZM23 5.2C23 4.65645 23.0008 4.18864 22.9694 3.80497C22.9371 3.40963 22.8658 3.01641 22.673 2.63803L20.891 3.54601C20.9162 3.59545 20.9539 3.69617 20.9761 3.96784C20.9992 4.25117 21 4.62345 21 5.2H23ZM20.454 3.10899C20.6422 3.20487 20.7951 3.35785 20.891 3.54601L22.673 2.63803C22.3854 2.07354 21.9265 1.6146 21.362 1.32698L20.454 3.10899ZM11.2 1C10.6564 1 10.1886 0.999222 9.80497 1.03057C9.40963 1.06287 9.01641 1.13419 8.63803 1.32698L9.54601 3.10899C9.59545 3.0838 9.69617 3.04612 9.96784 3.02393C10.2512 3.00078 10.6234 3 11.2 3V1ZM9 5.2C9 4.62345 9.00078 4.25117 9.02393 3.96784C9.04612 3.69617 9.0838 3.59545 9.10899 3.54601L7.32698 2.63803C7.13419 3.01641 7.06287 3.40963 7.03057 3.80497C6.99922 4.18864 7 4.65645 7 5.2H9ZM8.63803 1.32698C8.07354 1.6146 7.6146 2.07354 7.32698 2.63803L9.10899 3.54601C9.20487 3.35785 9.35785 3.20487 9.54601 3.10899L8.63803 1.32698Z" fill="#6366F1"/>
</svg>
