<svg width="20" height="20" viewBox="0 0 20 20" fill="none" xmlns="http://www.w3.org/2000/svg">
<path d="M11 6C11 5.44772 10.5523 5 10 5C9.44771 5 9 5.44772 9 6H11ZM9 14C9 14.5523 9.44771 15 10 15C10.5523 15 11 14.5523 11 14H9ZM6 9C5.44772 9 5 9.44771 5 10C5 10.5523 5.44772 11 6 11V9ZM14 11C14.5523 11 15 10.5523 15 10C15 9.44771 14.5523 9 14 9V11ZM2.63803 18.673L2.18404 19.564L2.63803 18.673ZM1.32698 17.362L0.435974 17.816L1.32698 17.362ZM18.673 17.362L19.564 17.816L18.673 17.362ZM17.362 18.673L17.816 19.564L17.362 18.673ZM17.362 1.32698L17.816 0.435974L17.362 1.32698ZM18.673 2.63803L19.564 2.18404L18.673 2.63803ZM2.63803 1.32698L2.18404 0.435974L2.63803 1.32698ZM1.32698 2.63803L0.435974 2.18404L1.32698 2.63803ZM9 6V14H11V6H9ZM6 11H14V9H6V11ZM5.8 2H14.2V0H5.8V2ZM18 5.8V14.2H20V5.8H18ZM14.2 18H5.8V20H14.2V18ZM2 14.2V5.8H0V14.2H2ZM5.8 18C4.94342 18 4.36113 17.9992 3.91104 17.9624C3.47262 17.9266 3.24842 17.8617 3.09202 17.782L2.18404 19.564C2.66937 19.8113 3.18608 19.9099 3.74817 19.9558C4.2986 20.0008 4.97642 20 5.8 20V18ZM0 14.2C0 15.0236 -0.000777721 15.7014 0.0441936 16.2518C0.0901188 16.8139 0.188683 17.3306 0.435974 17.816L2.21799 16.908C2.1383 16.7516 2.07337 16.5274 2.03755 16.089C2.00078 15.6389 2 15.0566 2 14.2H0ZM3.09202 17.782C2.7157 17.5903 2.40973 17.2843 2.21799 16.908L0.435974 17.816C0.819467 18.5686 1.43139 19.1805 2.18404 19.564L3.09202 17.782ZM18 14.2C18 15.0566 17.9992 15.6389 17.9624 16.089C17.9266 16.5274 17.8617 16.7516 17.782 16.908L19.564 17.816C19.8113 17.3306 19.9099 16.8139 19.9558 16.2518C20.0008 15.7014 20 15.0236 20 14.2H18ZM14.2 20C15.0236 20 15.7014 20.0008 16.2518 19.9558C16.8139 19.9099 17.3306 19.8113 17.816 19.564L16.908 17.782C16.7516 17.8617 16.5274 17.9266 16.089 17.9624C15.6389 17.9992 15.0566 18 14.2 18V20ZM17.782 16.908C17.5903 17.2843 17.2843 17.5903 16.908 17.782L17.816 19.564C18.5686 19.1805 19.1805 18.5686 19.564 17.816L17.782 16.908ZM14.2 2C15.0566 2 15.6389 2.00078 16.089 2.03755C16.5274 2.07337 16.7516 2.1383 16.908 2.21799L17.816 0.435974C17.3306 0.188683 16.8139 0.0901188 16.2518 0.0441936C15.7014 -0.000777721 15.0236 0 14.2 0V2ZM20 5.8C20 4.97642 20.0008 4.2986 19.9558 3.74817C19.9099 3.18608 19.8113 2.66937 19.564 2.18404L17.782 3.09202C17.8617 3.24842 17.9266 3.47262 17.9624 3.91104C17.9992 4.36113 18 4.94342 18 5.8H20ZM16.908 2.21799C17.2843 2.40973 17.5903 2.7157 17.782 3.09202L19.564 2.18404C19.1805 1.43139 18.5686 0.819467 17.816 0.435974L16.908 2.21799ZM5.8 0C4.97642 0 4.2986 -0.000777721 3.74817 0.0441936C3.18608 0.0901188 2.66937 0.188683 2.18404 0.435974L3.09202 2.21799C3.24842 2.1383 3.47262 2.07337 3.91104 2.03755C4.36113 2.00078 4.94342 2 5.8 2V0ZM2 5.8C2 4.94342 2.00078 4.36113 2.03755 3.91104C2.07337 3.47262 2.1383 3.24842 2.21799 3.09202L0.435974 2.18404C0.188683 2.66937 0.0901188 3.18608 0.0441936 3.74817C-0.000777721 4.2986 0 4.97642 0 5.8H2ZM2.18404 0.435974C1.43139 0.819467 0.819467 1.43139 0.435974 2.18404L2.21799 3.09202C2.40973 2.71569 2.71569 2.40973 3.09202 2.21799L2.18404 0.435974Z" fill="#6366F1"/>
</svg>
