<svg width="24" height="24" viewBox="0 0 24 24" fill="none" xmlns="http://www.w3.org/2000/svg">
<path d="M10.7326 15.7076L10.1918 14.8664L10.7326 15.7076ZM9.96438 16.0829L9.89314 17.0804L9.96438 16.0829ZM9.59974 15.8838L10.4003 15.2845L9.59974 15.8838ZM15.4532 11.3271L15.994 10.4859L15.4532 11.3271ZM16.0359 11.8054L16.9571 11.4162L16.0359 11.8054ZM15.4532 12.6729L15.994 13.5141L15.4532 12.6729ZM16.0359 12.1946L16.9571 12.5838L16.0359 12.1946ZM10.7326 8.29239L10.1918 9.13357L10.7326 8.29239ZM9.96438 7.9171L9.89314 6.91964L9.96438 7.9171ZM9.59974 8.11618L10.4003 8.71549L9.59974 8.11618ZM21 12C21 16.9706 16.9706 21 12 21V23C18.0751 23 23 18.0751 23 12H21ZM12 21C7.02944 21 3 16.9706 3 12H1C1 18.0751 5.92487 23 12 23V21ZM3 12C3 7.02944 7.02944 3 12 3V1C5.92487 1 1 5.92487 1 12H3ZM12 3C16.9706 3 21 7.02944 21 12H23C23 5.92487 18.0751 1 12 1V3ZM10.1918 9.13357L14.9124 12.1682L15.994 10.4859L11.2734 7.45121L10.1918 9.13357ZM14.9124 11.8318L10.1918 14.8664L11.2734 16.5488L15.994 13.5141L14.9124 11.8318ZM10.5 15.0347V8.96533H8.5V15.0347H10.5ZM10.1918 14.8664C10.0894 14.9323 10.0093 14.9837 9.94018 15.0265C9.87051 15.0697 9.82679 15.0947 9.7985 15.1094C9.76893 15.1248 9.77748 15.1176 9.81187 15.1074C9.85094 15.0957 9.93033 15.0779 10.0356 15.0854L9.89314 17.0804C10.2611 17.1066 10.5582 16.9687 10.7219 16.8835C10.8934 16.7943 11.0893 16.6671 11.2734 16.5488L10.1918 14.8664ZM8.5 15.0347C8.5 15.2535 8.49899 15.4871 8.51664 15.6796C8.5335 15.8633 8.57813 16.1878 8.79923 16.4831L10.4003 15.2845C10.4635 15.369 10.4915 15.4454 10.5028 15.4846C10.5128 15.5191 10.5113 15.5301 10.5083 15.497C10.5054 15.4652 10.5028 15.4149 10.5014 15.333C10.5 15.2516 10.5 15.1565 10.5 15.0347H8.5ZM10.0356 15.0854C10.1803 15.0958 10.3133 15.1684 10.4003 15.2845L8.79923 16.4831C9.05999 16.8314 9.45914 17.0494 9.89314 17.0804L10.0356 15.0854ZM14.9124 12.1682C15.0017 12.2256 15.07 12.2696 15.1277 12.3081C15.1857 12.3468 15.2187 12.3706 15.2377 12.3854C15.2572 12.4006 15.2451 12.3934 15.221 12.3664C15.1939 12.3358 15.1503 12.2786 15.1148 12.1946L16.9571 11.4162C16.8273 11.1089 16.6071 10.917 16.4676 10.8083C16.3285 10.6998 16.1519 10.5874 15.994 10.4859L14.9124 12.1682ZM15.994 13.5141C16.1519 13.4126 16.3285 13.3002 16.4676 13.1917C16.6071 13.083 16.8273 12.8911 16.9571 12.5838L15.1148 11.8054C15.1503 11.7214 15.1939 11.6642 15.221 11.6336C15.2451 11.6066 15.2572 11.5994 15.2377 11.6146C15.2187 11.6294 15.1857 11.6532 15.1277 11.6919C15.07 11.7304 15.0017 11.7744 14.9124 11.8318L15.994 13.5141ZM15.1148 12.1946C15.0622 12.0702 15.0622 11.9298 15.1148 11.8054L16.9571 12.5838C17.1148 12.2106 17.1148 11.7894 16.9571 11.4162L15.1148 12.1946ZM11.2734 7.45121C11.0893 7.33289 10.8934 7.20573 10.7219 7.11647C10.5582 7.03127 10.2611 6.89336 9.89314 6.91964L10.0356 8.91456C9.93033 8.92208 9.85094 8.90431 9.81187 8.89264C9.77749 8.88237 9.76893 8.87517 9.7985 8.89055C9.82679 8.90528 9.87051 8.93033 9.94017 8.97346C10.0093 9.01626 10.0894 9.06768 10.1918 9.13357L11.2734 7.45121ZM10.5 8.96533C10.5 8.84349 10.5 8.74836 10.5014 8.66705C10.5028 8.58513 10.5054 8.53481 10.5083 8.50304C10.5113 8.46985 10.5128 8.48094 10.5028 8.51541C10.4915 8.55459 10.4635 8.63098 10.4003 8.71549L8.79923 7.51687C8.57813 7.81219 8.5335 8.13665 8.51664 8.32042C8.49899 8.51293 8.5 8.74652 8.5 8.96533H10.5ZM9.89314 6.91964C9.45914 6.95064 9.05999 7.16856 8.79923 7.51687L10.4003 8.71549C10.3133 8.83159 10.1803 8.90423 10.0356 8.91456L9.89314 6.91964Z" fill="#6366F1"/>
</svg>
