<svg width="1929" height="1026" viewBox="0 0 1929 1026" fill="none" xmlns="http://www.w3.org/2000/svg">
<path d="M272.091 106H332.284M272.091 106L242 55L272.091 4H332.284L362.375 55M272.091 106L242 157L272.091 208M332.284 106L362.375 55M332.284 106L362.375 157M362.375 55L392.466 4H452.659L482.75 55M362.375 55L392.466 106M272.091 514H332.284M272.091 514L242 463L272.091 412M272.091 514L242 565L272.091 616M332.284 514L362.375 463M332.284 514L362.375 565M362.375 463L332.284 412M362.375 463L392.466 412M362.375 463L392.466 514M332.284 412H272.091M332.284 412L362.375 361M272.091 412L242 361L272.091 310M272.091 310H332.284M272.091 310L242 259L272.091 208M332.284 310L362.375 259M332.284 310L362.375 361M362.375 259L332.284 208M362.375 259L392.466 208M362.375 259L392.466 310M332.284 208H272.091M332.284 208L362.375 157M272.091 718H332.284M272.091 718L242 667L272.091 616M272.091 718L242 769L272.091 820M332.284 718L362.375 667M332.284 718L362.375 769M362.375 667L332.284 616M362.375 667L392.466 616M362.375 667L392.466 718M332.284 616H272.091M332.284 616L362.375 565M272.091 922H332.284M272.091 922L242 871L272.091 820M272.091 922L242 973L272.091 1024H332.284L362.375 973M332.284 922L362.375 871M332.284 922L362.375 973M362.375 871L332.284 820M362.375 871L392.466 820M362.375 871L392.466 922M332.284 820H272.091M332.284 820L362.375 769M362.375 157L392.466 106M362.375 157L392.466 208M362.375 565L392.466 514M362.375 565L392.466 616M362.375 361L392.466 310M362.375 361L392.466 412M362.375 769L392.466 718M362.375 769L392.466 820M362.375 973L392.466 922M362.375 973L392.466 1024H452.659L482.75 973M753.591 106H813.784M753.591 106L723.5 55M753.591 106L723.5 157M813.784 106L843.875 55M813.784 106L843.875 157M843.875 55L813.784 4H753.591L723.5 55M843.875 55L873.966 4H934.159L964.25 55M843.875 55L873.966 106M723.5 55L693.409 106M723.5 55L693.409 4H633.216L603.125 55M753.591 514H813.784M753.591 514L723.5 463M753.591 514L723.5 565M813.784 514L843.875 463M813.784 514L843.875 565M843.875 463L813.784 412M843.875 463L873.966 412M843.875 463L873.966 514M813.784 412H753.591M813.784 412L843.875 361M753.591 412L723.5 463M753.591 412L723.5 361M723.5 463L693.409 514M723.5 463L693.409 412M753.591 310H813.784M753.591 310L723.5 259M753.591 310L723.5 361M813.784 310L843.875 259M813.784 310L843.875 361M843.875 259L813.784 208M843.875 259L873.966 208M843.875 259L873.966 310M813.784 208H753.591M813.784 208L843.875 157M753.591 208L723.5 259M753.591 208L723.5 157M723.5 259L693.409 310M723.5 259L693.409 208M753.591 718H813.784M753.591 718L723.5 667M753.591 718L723.5 769M813.784 718L843.875 667M813.784 718L843.875 769M843.875 667L813.784 616M843.875 667L873.966 616M843.875 667L873.966 718M813.784 616H753.591M813.784 616L843.875 565M753.591 616L723.5 667M753.591 616L723.5 565M723.5 667L693.409 718M723.5 667L693.409 616M753.591 922H813.784M753.591 922L723.5 871M753.591 922L723.5 973M813.784 922L843.875 871M813.784 922L843.875 973M843.875 871L813.784 820M843.875 871L873.966 820M843.875 871L873.966 922M813.784 820H753.591M813.784 820L843.875 769M753.591 820L723.5 871M753.591 820L723.5 769M723.5 871L693.409 922M723.5 871L693.409 820M843.875 157L873.966 106M843.875 157L873.966 208M723.5 157L693.409 208M723.5 157L693.409 106M843.875 565L873.966 514M843.875 565L873.966 616M723.5 565L693.409 616M723.5 565L693.409 514M843.875 361L873.966 310M843.875 361L873.966 412M723.5 361L693.409 412M723.5 361L693.409 310M843.875 769L873.966 718M843.875 769L873.966 820M723.5 769L693.409 820M723.5 769L693.409 718M843.875 973L813.784 1024H753.591L723.5 973M843.875 973L873.966 922M843.875 973L873.966 1024H934.159L964.25 973M723.5 973L693.409 1024H633.216L603.125 973M723.5 973L693.409 922M512.841 106H573.034M512.841 106L482.75 55M512.841 106L482.75 157M573.034 106L603.125 55M573.034 106L603.125 157M603.125 55L573.034 4H512.841L482.75 55M603.125 55L633.216 106M482.75 55L452.659 106M512.841 514H573.034M512.841 514L482.75 463M512.841 514L482.75 565M573.034 514L603.125 463M573.034 514L603.125 565M603.125 463L573.034 412M603.125 463L633.216 412M603.125 463L633.216 514M573.034 412H512.841M573.034 412L603.125 361M512.841 412L482.75 463M512.841 412L482.75 361M482.75 463L452.659 514M482.75 463L452.659 412M512.841 310H573.034M512.841 310L482.75 259M512.841 310L482.75 361M573.034 310L603.125 259M573.034 310L603.125 361M603.125 259L573.034 208M603.125 259L633.216 208M603.125 259L633.216 310M573.034 208H512.841M573.034 208L603.125 157M512.841 208L482.75 259M512.841 208L482.75 157M482.75 259L452.659 310M482.75 259L452.659 208M512.841 718H573.034M512.841 718L482.75 667M512.841 718L482.75 769M573.034 718L603.125 667M573.034 718L603.125 769M603.125 667L573.034 616M603.125 667L633.216 616M603.125 667L633.216 718M573.034 616H512.841M573.034 616L603.125 565M512.841 616L482.75 667M512.841 616L482.75 565M482.75 667L452.659 718M482.75 667L452.659 616M512.841 922H573.034M512.841 922L482.75 871M512.841 922L482.75 973M573.034 922L603.125 871M573.034 922L603.125 973M603.125 871L573.034 820M603.125 871L633.216 820M603.125 871L633.216 922M573.034 820H512.841M573.034 820L603.125 769M512.841 820L482.75 871M512.841 820L482.75 769M482.75 871L452.659 922M482.75 871L452.659 820M603.125 157L633.216 106M603.125 157L633.216 208M482.75 157L452.659 208M482.75 157L452.659 106M603.125 565L633.216 514M603.125 565L633.216 616M482.75 565L452.659 616M482.75 565L452.659 514M603.125 361L633.216 310M603.125 361L633.216 412M482.75 361L452.659 412M482.75 361L452.659 310M603.125 769L633.216 718M603.125 769L633.216 820M482.75 769L452.659 820M482.75 769L452.659 718M603.125 973L573.034 1024H512.841L482.75 973M603.125 973L633.216 922M482.75 973L452.659 922M994.341 106H1054.53M994.341 106L964.25 55M994.341 106L964.25 157M1054.53 106L1084.62 55M1054.53 106L1084.62 157M1084.62 55L1054.53 4H994.341L964.25 55M1084.62 55L1114.72 4H1174.91L1205 55L1174.91 106M1084.62 55L1114.72 106M964.25 55L934.159 106M994.341 514H1054.53M994.341 514L964.25 463M994.341 514L964.25 565M1054.53 514L1084.62 463M1054.53 514L1084.62 565M1084.62 463L1054.53 412M1084.62 463L1114.72 412M1084.62 463L1114.72 514M1054.53 412H994.341M1054.53 412L1084.62 361M994.341 412L964.25 463M994.341 412L964.25 361M964.25 463L934.159 514M964.25 463L934.159 412M994.341 310H1054.53M994.341 310L964.25 259M994.341 310L964.25 361M1054.53 310L1084.62 259M1054.53 310L1084.62 361M1084.62 259L1054.53 208M1084.62 259L1114.72 208M1084.62 259L1114.72 310M1054.53 208H994.341M1054.53 208L1084.62 157M994.341 208L964.25 259M994.341 208L964.25 157M964.25 259L934.159 310M964.25 259L934.159 208M994.341 718H1054.53M994.341 718L964.25 667M994.341 718L964.25 769M1054.53 718L1084.62 667M1054.53 718L1084.62 769M1084.62 667L1054.53 616M1084.62 667L1114.72 616M1084.62 667L1114.72 718M1054.53 616H994.341M1054.53 616L1084.62 565M994.341 616L964.25 667M994.341 616L964.25 565M964.25 667L934.159 718M964.25 667L934.159 616M994.341 922H1054.53M994.341 922L964.25 871M994.341 922L964.25 973M1054.53 922L1084.62 871M1054.53 922L1084.62 973M1084.62 871L1054.53 820M1084.62 871L1114.72 820M1084.62 871L1114.72 922M1054.53 820H994.341M1054.53 820L1084.62 769M994.341 820L964.25 871M994.341 820L964.25 769M964.25 871L934.159 922M964.25 871L934.159 820M1084.62 157L1114.72 106M1084.62 157L1114.72 208M964.25 157L934.159 208M964.25 157L934.159 106M1084.62 565L1114.72 514M1084.62 565L1114.72 616M964.25 565L934.159 616M964.25 565L934.159 514M1084.62 361L1114.72 310M1084.62 361L1114.72 412M964.25 361L934.159 412M964.25 361L934.159 310M1084.62 769L1114.72 718M1084.62 769L1114.72 820M964.25 769L934.159 820M964.25 769L934.159 718M1084.62 973L1054.53 1024H994.341L964.25 973M1084.62 973L1114.72 922M1084.62 973L1114.72 1024H1174.91L1205 973L1174.91 922M964.25 973L934.159 922M392.466 106H452.659M392.466 514H452.659M452.659 412H392.466M392.466 310H452.659M452.659 208H392.466M392.466 718H452.659M452.659 616H392.466M392.466 922H452.659M452.659 820H392.466M873.966 106H934.159M873.966 514H934.159M934.159 412H873.966M873.966 310H934.159M934.159 208H873.966M873.966 718H934.159M934.159 616H873.966M873.966 922H934.159M934.159 820H873.966M633.216 106H693.409M633.216 514H693.409M693.409 412H633.216M633.216 310H693.409M693.409 208H633.216M633.216 718H693.409M693.409 616H633.216M633.216 922H693.409M693.409 820H633.216M1114.72 106H1174.91M1174.91 106L1205 157L1174.91 208M1114.72 514H1174.91M1174.91 514L1205 463L1174.91 412M1174.91 514L1205 565L1174.91 616M1174.91 412H1114.72M1174.91 412L1205 361L1174.91 310M1114.72 310H1174.91M1174.91 310L1205 259L1174.91 208M1174.91 208H1114.72M1114.72 718H1174.91M1174.91 718L1205 667L1174.91 616M1174.91 718L1205 769L1174.91 820M1174.91 616H1114.72M1114.72 922H1174.91M1174.91 922L1205 871L1174.91 820M1174.91 820H1114.72" stroke="#E0E7FF" stroke-miterlimit="10"/>
<path d="M31.3411 106H91.5338M31.3411 106L1.25 55L31.3411 4H91.5338L121.625 55M31.3411 106L1.25 157L31.3411 208M91.5338 106L121.625 55M91.5338 106L121.625 157M121.625 55L151.716 4H211.909L242 55L211.909 106M121.625 55L151.716 106M31.3411 514H91.5338M31.3411 514L1.25 463L31.3411 412M31.3411 514L1.25 565L31.3411 616M91.5338 514L121.625 463M91.5338 514L121.625 565M121.625 463L91.5338 412M121.625 463L151.716 412M121.625 463L151.716 514M91.5338 412H31.3411M91.5338 412L121.625 361M31.3411 412L1.25 361L31.3411 310M31.3411 310H91.5338M31.3411 310L1.25 259L31.3411 208M91.5338 310L121.625 259M91.5338 310L121.625 361M121.625 259L91.5338 208M121.625 259L151.716 208M121.625 259L151.716 310M91.5338 208H31.3411M91.5338 208L121.625 157M31.3411 718H91.5338M31.3411 718L1.25 667L31.3411 616M31.3411 718L1.25 769L31.3411 820M91.5338 718L121.625 667M91.5338 718L121.625 769M121.625 667L91.5338 616M121.625 667L151.716 616M121.625 667L151.716 718M91.5338 616H31.3411M91.5338 616L121.625 565M31.3411 922H91.5338M31.3411 922L1.25 871L31.3411 820M31.3411 922L1.25 973L31.3411 1024H91.5338L121.625 973M91.5338 922L121.625 871M91.5338 922L121.625 973M121.625 871L91.5338 820M121.625 871L151.716 820M121.625 871L151.716 922M91.5338 820H31.3411M91.5338 820L121.625 769M121.625 157L151.716 106M121.625 157L151.716 208M121.625 565L151.716 514M121.625 565L151.716 616M121.625 361L151.716 310M121.625 361L151.716 412M121.625 769L151.716 718M121.625 769L151.716 820M121.625 973L151.716 922M121.625 973L151.716 1024H211.909L242 973L211.909 922M151.716 106H211.909M211.909 106L242 157L211.909 208M151.716 514H211.909M211.909 514L242 463L211.909 412M211.909 514L242 565L211.909 616M211.909 412H151.716M211.909 412L242 361L211.909 310M151.716 310H211.909M211.909 310L242 259L211.909 208M211.909 208H151.716M151.716 718H211.909M211.909 718L242 667L211.909 616M211.909 718L242 769L211.909 820M211.909 616H151.716M151.716 922H211.909M211.909 922L242 871L211.909 820M211.909 820H151.716" stroke="#E0E7FF" stroke-miterlimit="10"/>
<path d="M1235.12 103.4H1295.38M1235.12 103.4L1205 52.2L1235.12 1H1295.38L1325.5 52.2M1235.12 103.4L1205 154.6L1235.12 205.8M1295.38 103.4L1325.5 52.2M1295.38 103.4L1325.5 154.6M1325.5 52.2L1355.62 1H1415.88L1446 52.2M1325.5 52.2L1355.62 103.4M1235.12 513H1295.38M1235.12 513L1205 461.8L1235.12 410.6M1235.12 513L1205 564.2L1235.12 615.4M1295.38 513L1325.5 461.8M1295.38 513L1325.5 564.2M1325.5 461.8L1295.38 410.6M1325.5 461.8L1355.62 410.6M1325.5 461.8L1355.62 513M1295.38 410.6H1235.12M1295.38 410.6L1325.5 359.4M1235.12 410.6L1205 359.4L1235.12 308.2M1235.12 308.2H1295.38M1235.12 308.2L1205 257L1235.12 205.8M1295.38 308.2L1325.5 257M1295.38 308.2L1325.5 359.4M1325.5 257L1295.38 205.8M1325.5 257L1355.62 205.8M1325.5 257L1355.62 308.2M1295.38 205.8H1235.12M1295.38 205.8L1325.5 154.6M1235.12 717.8H1295.38M1235.12 717.8L1205 666.6L1235.12 615.4M1235.12 717.8L1205 769L1235.12 820.2M1295.38 717.8L1325.5 666.6M1295.38 717.8L1325.5 769M1325.5 666.6L1295.38 615.4M1325.5 666.6L1355.62 615.4M1325.5 666.6L1355.62 717.8M1295.38 615.4H1235.12M1295.38 615.4L1325.5 564.2M1235.12 922.6H1295.38M1235.12 922.6L1205 871.4L1235.12 820.2M1235.12 922.6L1205 973.8L1235.12 1025H1295.38L1325.5 973.8M1295.38 922.6L1325.5 871.4M1295.38 922.6L1325.5 973.8M1325.5 871.4L1295.38 820.2M1325.5 871.4L1355.62 820.2M1325.5 871.4L1355.62 922.6M1295.38 820.2H1235.12M1295.38 820.2L1325.5 769M1325.5 154.6L1355.62 103.4M1325.5 154.6L1355.62 205.8M1325.5 564.2L1355.62 513M1325.5 564.2L1355.62 615.4M1325.5 359.4L1355.62 308.2M1325.5 359.4L1355.62 410.6M1325.5 769L1355.62 717.8M1325.5 769L1355.62 820.2M1325.5 973.8L1355.62 922.6M1325.5 973.8L1355.62 1025H1415.88L1446 973.8M1717.12 103.4H1777.38M1717.12 103.4L1687 52.2M1717.12 103.4L1687 154.6M1777.38 103.4L1807.5 52.2M1777.38 103.4L1807.5 154.6M1807.5 52.2L1777.38 1H1717.12L1687 52.2M1807.5 52.2L1837.62 1H1897.88L1928 52.2L1897.88 103.4M1807.5 52.2L1837.62 103.4M1687 52.2L1656.88 103.4M1687 52.2L1656.88 1H1596.62L1566.5 52.2M1717.12 513H1777.38M1717.12 513L1687 461.8M1717.12 513L1687 564.2M1777.38 513L1807.5 461.8M1777.38 513L1807.5 564.2M1807.5 461.8L1777.38 410.6M1807.5 461.8L1837.62 410.6M1807.5 461.8L1837.62 513M1777.38 410.6H1717.12M1777.38 410.6L1807.5 359.4M1717.12 410.6L1687 461.8M1717.12 410.6L1687 359.4M1687 461.8L1656.88 513M1687 461.8L1656.88 410.6M1717.12 308.2H1777.38M1717.12 308.2L1687 257M1717.12 308.2L1687 359.4M1777.38 308.2L1807.5 257M1777.38 308.2L1807.5 359.4M1807.5 257L1777.38 205.8M1807.5 257L1837.62 205.8M1807.5 257L1837.62 308.2M1777.38 205.8H1717.12M1777.38 205.8L1807.5 154.6M1717.12 205.8L1687 257M1717.12 205.8L1687 154.6M1687 257L1656.88 308.2M1687 257L1656.88 205.8M1717.12 717.8H1777.38M1717.12 717.8L1687 666.6M1717.12 717.8L1687 769M1777.38 717.8L1807.5 666.6M1777.38 717.8L1807.5 769M1807.5 666.6L1777.38 615.4M1807.5 666.6L1837.62 615.4M1807.5 666.6L1837.62 717.8M1777.38 615.4H1717.12M1777.38 615.4L1807.5 564.2M1717.12 615.4L1687 666.6M1717.12 615.4L1687 564.2M1687 666.6L1656.88 717.8M1687 666.6L1656.88 615.4M1717.12 922.6H1777.38M1717.12 922.6L1687 871.4M1717.12 922.6L1687 973.8M1777.38 922.6L1807.5 871.4M1777.38 922.6L1807.5 973.8M1807.5 871.4L1777.38 820.2M1807.5 871.4L1837.62 820.2M1807.5 871.4L1837.62 922.6M1777.38 820.2H1717.12M1777.38 820.2L1807.5 769M1717.12 820.2L1687 871.4M1717.12 820.2L1687 769M1687 871.4L1656.88 922.6M1687 871.4L1656.88 820.2M1807.5 154.6L1837.62 103.4M1807.5 154.6L1837.62 205.8M1687 154.6L1656.88 205.8M1687 154.6L1656.88 103.4M1807.5 564.2L1837.62 513M1807.5 564.2L1837.62 615.4M1687 564.2L1656.88 615.4M1687 564.2L1656.88 513M1807.5 359.4L1837.62 308.2M1807.5 359.4L1837.62 410.6M1687 359.4L1656.88 410.6M1687 359.4L1656.88 308.2M1807.5 769L1837.62 717.8M1807.5 769L1837.62 820.2M1687 769L1656.88 820.2M1687 769L1656.88 717.8M1807.5 973.8L1777.38 1025H1717.12L1687 973.8M1807.5 973.8L1837.62 922.6M1807.5 973.8L1837.62 1025H1897.88L1928 973.8L1897.88 922.6M1687 973.8L1656.88 1025H1596.62L1566.5 973.8M1687 973.8L1656.88 922.6M1476.12 103.4H1536.38M1476.12 103.4L1446 52.2M1476.12 103.4L1446 154.6M1536.38 103.4L1566.5 52.2M1536.38 103.4L1566.5 154.6M1566.5 52.2L1536.38 1H1476.12L1446 52.2M1566.5 52.2L1596.62 103.4M1446 52.2L1415.88 103.4M1476.12 513H1536.38M1476.12 513L1446 461.8M1476.12 513L1446 564.2M1536.38 513L1566.5 461.8M1536.38 513L1566.5 564.2M1566.5 461.8L1536.38 410.6M1566.5 461.8L1596.62 410.6M1566.5 461.8L1596.62 513M1536.38 410.6H1476.12M1536.38 410.6L1566.5 359.4M1476.12 410.6L1446 461.8M1476.12 410.6L1446 359.4M1446 461.8L1415.88 513M1446 461.8L1415.88 410.6M1476.12 308.2H1536.38M1476.12 308.2L1446 257M1476.12 308.2L1446 359.4M1536.38 308.2L1566.5 257M1536.38 308.2L1566.5 359.4M1566.5 257L1536.38 205.8M1566.5 257L1596.62 205.8M1566.5 257L1596.62 308.2M1536.38 205.8H1476.12M1536.38 205.8L1566.5 154.6M1476.12 205.8L1446 257M1476.12 205.8L1446 154.6M1446 257L1415.88 308.2M1446 257L1415.88 205.8M1476.12 717.8H1536.38M1476.12 717.8L1446 666.6M1476.12 717.8L1446 769M1536.38 717.8L1566.5 666.6M1536.38 717.8L1566.5 769M1566.5 666.6L1536.38 615.4M1566.5 666.6L1596.62 615.4M1566.5 666.6L1596.62 717.8M1536.38 615.4H1476.12M1536.38 615.4L1566.5 564.2M1476.12 615.4L1446 666.6M1476.12 615.4L1446 564.2M1446 666.6L1415.88 717.8M1446 666.6L1415.88 615.4M1476.12 922.6H1536.38M1476.12 922.6L1446 871.4M1476.12 922.6L1446 973.8M1536.38 922.6L1566.5 871.4M1536.38 922.6L1566.5 973.8M1566.5 871.4L1536.38 820.2M1566.5 871.4L1596.62 820.2M1566.5 871.4L1596.62 922.6M1536.38 820.2H1476.12M1536.38 820.2L1566.5 769M1476.12 820.2L1446 871.4M1476.12 820.2L1446 769M1446 871.4L1415.88 922.6M1446 871.4L1415.88 820.2M1566.5 154.6L1596.62 103.4M1566.5 154.6L1596.62 205.8M1446 154.6L1415.88 205.8M1446 154.6L1415.88 103.4M1566.5 564.2L1596.62 513M1566.5 564.2L1596.62 615.4M1446 564.2L1415.88 615.4M1446 564.2L1415.88 513M1566.5 359.4L1596.62 308.2M1566.5 359.4L1596.62 410.6M1446 359.4L1415.88 410.6M1446 359.4L1415.88 308.2M1566.5 769L1596.62 717.8M1566.5 769L1596.62 820.2M1446 769L1415.88 820.2M1446 769L1415.88 717.8M1566.5 973.8L1536.38 1025H1476.12L1446 973.8M1566.5 973.8L1596.62 922.6M1446 973.8L1415.88 922.6M1355.62 103.4H1415.88M1355.62 513H1415.88M1415.88 410.6H1355.62M1355.62 308.2H1415.88M1415.88 205.8H1355.62M1355.62 717.8H1415.88M1415.88 615.4H1355.62M1355.62 922.6H1415.88M1415.88 820.2H1355.62M1837.62 103.4H1897.88M1897.88 103.4L1928 154.6L1897.88 205.8M1837.62 513H1897.88M1897.88 513L1928 461.8L1897.88 410.6M1897.88 513L1928 564.2L1897.88 615.4M1897.88 410.6H1837.62M1897.88 410.6L1928 359.4L1897.88 308.2M1837.62 308.2H1897.88M1897.88 308.2L1928 257L1897.88 205.8M1897.88 205.8H1837.62M1837.62 717.8H1897.88M1897.88 717.8L1928 666.6L1897.88 615.4M1897.88 717.8L1928 769L1897.88 820.2M1897.88 615.4H1837.62M1837.62 922.6H1897.88M1897.88 922.6L1928 871.4L1897.88 820.2M1897.88 820.2H1837.62M1596.62 103.4H1656.88M1596.62 513H1656.88M1656.88 410.6H1596.62M1596.62 308.2H1656.88M1656.88 205.8H1596.62M1596.62 717.8H1656.88M1656.88 615.4H1596.62M1596.62 922.6H1656.88M1656.88 820.2H1596.62" stroke="#E0E7FF" stroke-miterlimit="10"/>
</svg>
