<svg width="617" height="289" viewBox="0 0 617 289" fill="none" xmlns="http://www.w3.org/2000/svg">
<path d="M20 181.13C23.8063 180.235 34.7775 183.548 48.2115 203.968C61.6456 224.388 82.0206 232.18 90.5288 233.523" stroke="#C7D2FE" stroke-width="2"/>
<path d="M287.488 156.401C289.684 156.087 296.401 151.88 305.702 137.561C315.002 123.243 324.303 119.977 327.79 120.134" stroke="#C7D2FE" stroke-width="2"/>
<path d="M375 1.13028C378.806 0.234676 389.777 3.54841 403.212 23.9682C416.646 44.388 437.021 52.1797 445.529 53.5231" stroke="#C7D2FE" stroke-width="2"/>
<circle cx="474.222" cy="73.11" r="1.34341" fill="#A5B4FC"/>
<circle cx="376.154" cy="22.0604" r="1.34341" fill="#A5B4FC"/>
<circle cx="279.429" cy="15.3434" r="1.34341" fill="#A5B4FC"/>
<circle cx="235.343" cy="249.343" r="1.34341" fill="#A5B4FC"/>
<circle cx="150.343" cy="202.343" r="1.34341" fill="#A5B4FC"/>
<circle cx="114.189" cy="108.038" r="1.34341" fill="#A5B4FC"/>
<circle cx="77.9176" cy="66.393" r="1.34341" fill="#A5B4FC"/>
<path d="M0 227.602C0.223901 220.885 4.03022 207.45 17.4643 207.45C34.2569 207.45 40.3022 243.722 57.0948 246.409C73.8874 249.096 100.755 239.02 128.295 263.874C149.322 282.849 174.876 287.834 186.507 288.055H188.077C187.587 288.065 187.063 288.065 186.507 288.055H12C5.37257 288.055 0 282.682 0 276.055V227.602Z" fill="#E0E7FF"/>
<path d="M600.284 134.906C607.587 134.906 612.822 141.044 615.331 145.5C616.116 146.894 616.405 148.493 616.405 150.092V276.055C616.405 282.682 611.033 288.055 604.405 288.055H431.297C430.415 288.147 429.643 288.139 429 288.055H431.297C437.478 287.408 449.082 281.811 459.898 262.53C475.348 234.99 510.276 226.258 526.397 220.885C542.518 215.511 549.235 192.673 550.578 173.865C551.922 155.058 568.714 147.669 576.775 144.31C584.835 140.952 589.537 134.906 600.284 134.906Z" fill="#E0E7FF"/>
</svg>
